<svg width="772" height="515" xmlns="http://www.w3.org/2000/svg" xmlns:xlink="http://www.w3.org/1999/xlink" overflow="hidden"><defs><clipPath id="clip0"><rect x="1496" y="666" width="772" height="515"/></clipPath><clipPath id="clip1"><rect x="1512" y="700" width="756" height="468"/></clipPath><clipPath id="clip2"><rect x="1512" y="700" width="756" height="468"/></clipPath><clipPath id="clip3"><rect x="1512" y="700" width="756" height="468"/></clipPath><clipPath id="clip4"><rect x="1512" y="727" width="756" height="441"/></clipPath><clipPath id="clip5"><rect x="1512" y="718" width="756" height="450"/></clipPath></defs><g clip-path="url(#clip0)" transform="translate(-1496 -666)"><g clip-path="url(#clip1)"><g clip-path="url(#clip2)"><g clip-path="url(#clip3)"><g clip-path="url(#clip4)"><path d="M0 106.423 0 466.709 943.941 466.709 943.941 106.423 754.865 106.423 754.58 106.415 754.284 106.415 753.988 106.406 753.703 106.406 753.407 106.398 753.12 106.39 752.826 106.382 752.539 106.365 752.243 106.357 751.958 106.341 751.662 106.324 751.375 106.308 751.081 106.292 750.794 106.275 750.498 106.251 749.254 106.152 748.631 106.095 748.008 106.029 747.385 105.956 747.072 105.915 746.753 105.882 746.13 105.8 745.82 105.751 745.508 105.71 743.641 105.415 743.018 105.3 741.772 105.062 741.14 104.94 740.83 104.874 740.517 104.8 738.027 104.219 736.781 103.883 736.15 103.711 735.529 103.53 734.283 103.153 733.66 102.957 733.347 102.85 733.037 102.752 731.791 102.317 731.168 102.088 730.849 101.973 730.539 101.851 728.244 100.916 727.088 100.408 726.515 100.138 726.228 100.007 725.941 99.8677 723.64 98.6959 722.492 98.0568 721.917 97.7207 721.632 97.5569 721.345 97.3849 719.042 95.9346 717.894 95.1561 717.313 94.7465 716.74 94.3368 714.437 92.5832 713.29 91.6409 712.717 91.1656 712.43 90.9199 712.142 90.6659 707.448 86.2657 705.105 83.8074 703.932 82.5128 703.343 81.8491 703.047 81.5133 702.76 81.169 700.408 78.3504 699.238 76.8754 698.646 76.1217 698.361 75.7365 698.065 75.3514 695.722 72.172 694.541 70.517 693.96 69.6729 693.666 69.2468 693.37 68.8126 688.347 61.0939 685.832 57.0297 684.577 54.973 683.948 53.9405 683.325 52.9083 678.301 44.7799 675.786 40.9861 674.532 39.1998 673.902 38.3393 673.59 37.9215 673.271 37.5118 672.115 36.0533 671.534 35.3569 671.247 35.0208 670.951 34.6932 669.797 33.4476 669.214 32.8741 668.641 32.3333 667.477 31.3499 666.896 30.9157 666.609 30.7026 666.321 30.5061 665.74 30.1455 665.453 29.9735 665.159 29.8176 664.872 29.6702 664.585 29.5309 664.291 29.3998 664.003 29.2768 663.716 29.1703 663.422 29.0721 663.135 28.9819 662.839 28.8999 662.552 28.8344 662.267 28.7772 661.971 28.7279 661.683 28.687 661.398 28.6624 661.102 28.6459 660.815 28.6377 660.53 28.6377 660.234 28.6543 659.947 28.6788 659.661 28.7115 659.366 28.7524 659.078 28.8099 658.791 28.8754 658.497 28.9492 658.21 29.031 657.916 29.1294 657.629 29.2359 657.341 29.3507 657.046 29.4736 656.473 29.7603 656.177 29.916 655.892 30.0798 655.309 30.4322 654.736 30.8255 654.113 31.2927 653.803 31.5385 653.49 31.8007 652.867 32.3415 652.557 32.6283 652.244 32.9232 651.629 33.546 651.009 34.2015 650.386 34.8897 650.073 35.2503 649.763 35.6191 648.525 37.1512 647.902 37.9626 647.279 38.7983 646.033 40.5435 645.42 41.4449 645.108 41.9038 644.797 42.3708 642.314 46.2137 641.068 48.2049 640.445 49.2127 640.143 49.7125 639.83 50.2206 637.34 54.3011 636.103 56.3415 634.857 58.3735 630.286 65.6087 627.991 69.0421 626.844 70.689 626.277 71.5083 625.992 71.9098 625.705 72.3033 621.123 78.3341 618.839 81.087 617.692 82.398 617.117 83.0372 616.544 83.66 611.873 88.4124 609.538 90.5264 608.374 91.5262 607.793 92.0015 607.203 92.4766 604.867 94.263 603.705 95.0987 603.121 95.5002 602.532 95.8935 600.197 97.3685 599.033 98.0486 598.452 98.3762 598.156 98.5403 597.863 98.6959 595.362 99.9658 594.11 100.548 593.487 100.826 593.174 100.957 592.864 101.097 591.61 101.605 590.987 101.851 590.676 101.965 590.357 102.088 589.111 102.531 588.488 102.744 588.169 102.85 587.857 102.957 585.359 103.711 584.104 104.055 583.171 104.301 582.858 104.374 581.606 104.669 580.983 104.808 580.662 104.874 580.351 104.94 579.105 105.185 578.474 105.308 578.164 105.358 577.853 105.415 576.697 105.603 576.123 105.693 575.837 105.734 575.542 105.775 574.394 105.923 573.813 105.997 573.526 106.021 573.238 106.054 572.666 106.111 572.37 106.144 571.51 106.218 571.223 106.234 570.929 106.259 570.354 106.3 569.781 106.333 569.486 106.341 568.913 106.374 568.053 106.398 567.757 106.406 567.47 106.415 566.897 106.415 566.61 106.423 566.029 106.423 565.741 106.415 565.454 106.415 565.169 106.406 564.873 106.406 564.3 106.39 564.013 106.374 563.438 106.357 563.144 106.341 561.997 106.275 561.701 106.251 561.129 106.21 560.554 106.161 559.973 106.103 559.685 106.079 559.4 106.046 558.163 105.907 557.54 105.825 557.235 105.784 556.925 105.734 556.31 105.644 556 105.603 555.687 105.554 555.073 105.448 554.762 105.399 554.45 105.341 553.212 105.112 552.6 104.989 551.977 104.858 550.739 104.579 550.124 104.432 549.812 104.358 549.51 104.284 547.035 103.62 545.797 103.252 545.174 103.055 544.872 102.957 544.559 102.85 543.324 102.432 542.709 102.211 542.086 101.982 540.849 101.498 540.234 101.244 539.924 101.121 539.611 100.99 537.096 99.8431 535.833 99.2121 535.204 98.8843 534.891 98.7123 534.572 98.5403 533.318 97.8355 532.687 97.4667 532.368 97.2783 532.057 97.0816 530.795 96.2868 530.163 95.8771 529.853 95.6642 529.532 95.4511 527.017 93.6402 525.756 92.6652 525.125 92.1571 524.812 91.9031 524.502 91.6409 521.978 89.4531 520.715 88.2813 520.092 87.6833 519.774 87.3718 519.463 87.0687 514.808 82.1358 512.488 79.4156 511.326 77.9817 510.743 77.2523 510.458 76.8835 510.162 76.5068 507.836 73.4258 506.68 71.8198 506.099 71.0005 505.803 70.5824 505.516 70.1646 503.19 66.7395 502.025 64.9697 501.444 64.0684 501.157 63.6176 500.861 63.1589 495.879 55.1205 493.389 51.0317 492.143 48.9916 491.529 47.9836 490.906 46.9839 488.416 43.0919 487.17 41.2317 486.547 40.3306 486.236 39.888 485.924 39.4538 483.434 36.1762 482.188 34.7095 481.565 34.0295 481.254 33.7016 480.942 33.3821 479.794 32.284 479.213 31.7842 478.926 31.5467 478.641 31.3172 478.066 30.883 477.781 30.6781 477.493 30.4897 476.919 30.1291 476.633 29.9569 476.346 29.8013 475.771 29.5227 475.486 29.3916 474.911 29.1621 474.339 28.9819 474.051 28.8999 473.764 28.8344 473.478 28.7772 473.191 28.7279 472.904 28.687 472.618 28.6624 472.331 28.6459 472.044 28.6377 471.756 28.6377 471.184 28.6706 470.896 28.7033 470.324 28.8017 470.036 28.8672 469.749 28.941 469.464 29.0228 469.176 29.113 468.889 29.2196 468.604 29.3343 468.316 29.4572 468.029 29.5883 467.733 29.7276 467.16 30.0389 466.588 30.3913 466.3 30.5797 466.013 30.7764 465.44 31.2025 465.153 31.4238 464.866 31.6614 464.293 32.1529 464.006 32.4069 463.718 32.6773 463.146 33.2347 462.573 33.8245 461.4 35.1192 460.819 35.8074 460.523 36.1598 460.228 36.5204 459.057 38.0362 458.474 38.8228 458.18 39.2243 457.885 39.634 455.55 43.0672 454.377 44.8699 453.788 45.7876 453.501 46.2548 453.207 46.7217 448.519 54.3586 446.176 58.1933 445.005 60.086 444.422 61.0285 444.128 61.4954 443.841 61.9626 438.817 69.5993 436.31 73.139 435.056 74.8352 434.433 75.6627 434.114 76.0724 433.804 76.4739 431.295 79.604 430.043 81.087 429.411 81.8164 428.788 82.521 426.281 85.2414 425.027 86.5279 424.396 87.1507 423.773 87.7569 419.143 91.8867 416.834 93.7058 415.669 94.5579 415.097 94.9757 414.809 95.1725 414.514 95.3774 412.204 96.885 411.048 97.5896 410.467 97.9257 409.893 98.2533 407.575 99.4825 406.419 100.04 405.846 100.31 405.55 100.449 405.263 100.58 402.782 101.621 401.544 102.096 400.921 102.317 400.608 102.432 400.306 102.539 399.06 102.957 398.446 103.153 397.823 103.35 396.585 103.711 395.964 103.883 395.341 104.047 392.866 104.661 391.62 104.931 391.005 105.054 390.695 105.12 390.382 105.177 389.147 105.399 388.524 105.505 387.901 105.603 386.663 105.784 386.04 105.874 385.738 105.907 385.426 105.947 384.794 106.021 384.475 106.054 384.165 106.087 383.534 106.144 383.215 106.177 382.902 106.201 382.262 106.251 381.952 106.275 381.633 106.292 381.321 106.308 381.002 106.333 380.689 106.349 380.37 106.357 380.06 106.374 379.739 106.382 379.428 106.39 379.108 106.398 378.797 106.406 378.478 106.415 378.166 106.415 377.847 106.423 377.215 106.423 376.897 106.415 376.584 106.415 376.265 106.406 375.955 106.398 375.634 106.39 375.323 106.382 375.002 106.365 374.692 106.357 374.373 106.341 374.061 106.324 373.742 106.308 373.429 106.284 373.11 106.267 372.792 106.242 372.16 106.193 371.85 106.169 371.529 106.136 370.897 106.079 370.587 106.046 370.268 106.013 369.005 105.857 368.374 105.775 368.063 105.726 367.742 105.677 367.113 105.587 366.792 105.538 366.482 105.481 365.85 105.374 365.532 105.317 365.219 105.259 364.049 105.038 363.465 104.915 363.18 104.858 362.884 104.792 361.72 104.53 361.139 104.391 360.843 104.317 360.558 104.243 359.394 103.94 358.804 103.776 358.517 103.694 358.221 103.612 357.059 103.26 356.476 103.08 356.182 102.99 355.895 102.891 353.56 102.08 352.396 101.629 351.815 101.4 351.519 101.277 351.232 101.154 350.07 100.654 349.478 100.392 349.193 100.261 348.897 100.122 347.733 99.5562 347.152 99.2612 346.856 99.1138 346.571 98.9581 344.071 97.5651 342.827 96.8112 342.195 96.4097 341.883 96.2131 341.572 96.0082 339.074 94.2711 337.828 93.3371 336.582 92.3537 334.084 90.2478 332.838 89.1254 332.206 88.5435 331.583 87.9537 329.085 85.4627 327.839 84.1435 327.216 83.4634 326.593 82.775 321.989 77.2852 319.677 74.2781 318.532 72.713 317.67 71.5083 317.376 71.0987 312.769 64.2486 310.468 60.6186 309.321 58.7586 308.461 57.3576 308.165 56.8823 303.234 48.7866 300.758 44.8454 299.529 42.9445 298.906 42.0184 298.604 41.5596 298.292 41.109 295.825 37.6756 294.589 36.1106 293.975 35.3732 293.662 35.0126 293.352 34.6684 292.122 33.3492 291.499 32.743 291.195 32.4562 290.885 32.1775 290.27 31.6449 289.958 31.3992 289.656 31.1534 289.033 30.7026 288.73 30.4979 288.418 30.3011 287.787 29.9242 287.476 29.7603 287.157 29.6047 286.845 29.4572 286.534 29.318 286.213 29.2032 285.903 29.0885 285.59 28.9901 285.271 28.8999 284.961 28.8263 284.64 28.7688 284.33 28.7197 284.017 28.6788 283.698 28.6543 283.388 28.6377 283.075 28.6377 282.756 28.6459 282.444 28.6706 282.133 28.7033 281.815 28.7524 281.502 28.8099 281.183 28.8835 280.871 28.9656 280.56 29.0557 280.241 29.1621 279.929 29.285 279.618 29.4161 279.297 29.5554 278.987 29.7113 278.668 29.8751 278.355 30.0553 277.724 30.4404 277.414 30.6453 277.103 30.8664 276.472 31.3418 276.159 31.5958 275.84 31.858 275.209 32.4151 274.899 32.7103 274.586 33.0134 273.957 33.6444 273.644 33.972 273.325 34.3162 272.071 35.7584 271.44 36.5286 271.129 36.9219 270.81 37.3234 269.556 39.0032 268.924 39.8798 268.614 40.3306 268.293 40.7812 265.975 44.2637 264.819 46.0828 264.238 47.0087 263.943 47.4756 263.655 47.9427 261.337 51.72 260.173 53.6293 259.6 54.5879 259.305 55.0632 259.017 55.5385 254.373 63.0196 252.053 66.6003 250.897 68.3373 250.316 69.1814 250.029 69.6074 249.735 70.0253 244.762 76.8017 242.278 79.8825 241.032 81.3492 240.409 82.0622 240.099 82.4146 239.786 82.7586 237.305 85.4382 236.059 86.6999 235.436 87.3145 234.813 87.9209 232.331 90.2069 231.085 91.2803 230.462 91.7965 229.839 92.3046 227.553 94.0746 226.407 94.9021 225.833 95.3036 225.26 95.6969 222.965 97.1636 221.818 97.8436 221.253 98.1715 220.966 98.3271 220.679 98.491 218.384 99.6791 217.236 100.228 216.376 100.622 216.091 100.744 213.805 101.695 212.657 102.129 212.082 102.342 211.51 102.539 209.175 103.301 208.003 103.653 207.421 103.817 207.126 103.899 206.831 103.973 205.668 104.276 205.078 104.423 204.791 104.489 204.496 104.563 203.324 104.825 202.742 104.948 202.447 105.005 202.161 105.062 200.989 105.292 200.407 105.39 200.112 105.448 199.817 105.497 198.654 105.677 198.064 105.759 197.777 105.8 197.482 105.841 196.31 105.988 195.728 106.046 195.433 106.079 195.146 106.111 194.557 106.161 194.27 106.185 193.975 106.21 193.393 106.259 192.803 106.292 192.492 106.316 191.869 106.349 191.558 106.357 191.238 106.374 190.927 106.382 190.615 106.398 190.304 106.398 189.993 106.406 189.673 106.415 189.362 106.415 189.05 106.423 188.428 106.423 188.108 106.415 187.797 106.415 186.862 106.39 186.543 106.382 186.232 106.365 185.92 106.357 185.297 106.324 184.978 106.308 184.667 106.292 184.044 106.242 183.732 106.226 183.413 106.193 182.79 106.144 182.168 106.079 181.848 106.046 180.914 105.947 180.602 105.907 180.283 105.866 179.66 105.784 179.349 105.734 179.037 105.693 178.406 105.595 177.784 105.497 176.53 105.276 175.907 105.161 175.588 105.104 175.276 105.038 174.023 104.776 173.4 104.636 172.777 104.489 170.466 103.899 169.311 103.571 168.729 103.407 168.156 103.227 167 102.858 166.427 102.662 166.132 102.563 165.845 102.465 164.69 102.047 164.116 101.826 163.821 101.719 163.534 101.605 161.224 100.63 160.068 100.105 158.921 99.548 156.611 98.3271 155.455 97.6716 154.873 97.3274 154.587 97.1472 154.3 96.9752 151.825 95.3609 150.588 94.4843 149.965 94.0335 149.654 93.8042 149.351 93.5665 146.868 91.6 145.631 90.543 145.016 90.002 144.393 89.4449 141.919 87.1014 140.682 85.856 140.067 85.2169 139.756 84.8974 139.444 84.5695 136.97 81.8327 135.732 80.3988 135.11 79.6533 134.806 79.2845 134.495 78.9076 129.448 72.3033 126.932 68.6979 125.67 66.8216 125.039 65.8627 124.72 65.3876 124.408 64.8959 119.361 56.8577 116.845 52.7115 115.584 50.6384 114.953 49.6141 114.633 49.0979 114.322 48.5901 109.667 41.3465 107.341 38.0771 106.177 36.5777 105.595 35.8649 105.3 35.5125 105.013 35.1765 103.85 33.8818 103.268 33.2838 102.973 32.997 102.686 32.7184 101.523 31.6778 100.941 31.2188 100.646 30.9975 100.359 30.7846 99.7775 30.3913 99.4825 30.2109 99.1958 30.0389 98.6139 29.7194 98.319 29.5802 98.0322 29.4409 97.7373 29.318 97.4503 29.2114 97.1554 29.1048 96.8687 29.0146 96.5737 28.9246 96.2868 28.859 95.9918 28.7935 95.7051 28.7442 95.3938 28.6952 95.0823 28.6624 94.771 28.6459 94.4595 28.6377 94.1482 28.6377 93.8369 28.6543 93.5254 28.6788 93.2141 28.7197 92.9028 28.7688 92.5913 28.8344 92.2801 28.9081 91.9688 28.9983 91.6491 29.0967 91.3378 29.2032 91.0263 29.3261 90.715 29.4654 90.0922 29.7603 89.7809 29.9324 89.4694 30.1128 89.1581 30.3011 88.8468 30.4979 88.5353 30.7108 88.224 30.9321 87.6012 31.4074 87.29 31.6614 86.9785 31.9237 86.3559 32.4808 86.0444 32.7757 85.7331 33.0788 84.4875 34.3735 83.8649 35.0783 83.5534 35.4387 83.2421 35.8074 81.9884 37.3643 81.3658 38.1837 80.743 39.0359 79.4974 40.7975 78.8748 41.7071 78.5633 42.166 78.252 42.6412 77.0065 44.5504 76.3839 45.5254 75.7611 46.5088 71.1643 54.0062 68.8617 57.7755 67.7145 59.6354 67.141 60.5613 66.5675 61.4791 61.9707 68.5423 59.6682 71.8444 58.521 73.434 57.9475 74.2124 57.374 74.9827 52.6788 80.8414 50.3353 83.4962 49.1636 84.7579 48.5819 85.3725 48.2868 85.6758 47.9918 85.9708 45.6483 88.2813 44.4766 89.3712 43.8867 89.8957 43.6 90.1579 43.3048 90.4119 40.9614 92.3784 39.7898 93.3043 38.9048 93.968 38.6181 94.1891 36.1024 95.9427 34.8488 96.7457 34.2178 97.139 33.5951 97.516 31.0796 98.9254 29.826 99.5643 29.2032 99.8758 28.8835 100.023 28.5722 100.171 26.0649 101.277 24.803 101.777 24.1802 102.014 23.8607 102.137 23.5494 102.252 22.2957 102.686 21.6647 102.899 21.3534 102.998 21.0419 103.104 19.7801 103.489 18.846 103.76 18.5265 103.842 16.2158 104.44 15.0522 104.71 14.4787 104.841 14.1837 104.899 13.8969 104.956 12.7416 105.185 12.1598 105.3 11.873 105.349 11.578 105.399 10.4227 105.595 9.84092 105.677 9.26734 105.759 8.10379 105.915 7.53021 105.988 7.23524 106.013 6.94845 106.046 6.36669 106.111 5.79311 106.161 5.21135 106.21 4.92456 106.234 4.62957 106.251 4.05599 106.292 3.76102 106.308 3.18744 106.341 2.89246 106.357 2.60567 106.365 2.31888 106.382 2.0239 106.39 1.45032 106.406 1.15534 106.406 0.868558 106.415 0.581769 106.415 0.286788 106.423Z" fill="#0000FF" fill-opacity="0.3" transform="matrix(1 0 0 1.00048 1512.42 700)"/></g><g clip-path="url(#clip5)"><path d="M0 106.423 0 466.709 943.941 466.709 943.941 106.423 754.865 106.423 754.58 106.415 754.284 106.415 753.988 106.406 753.703 106.406 753.407 106.398 753.12 106.39 752.826 106.382 752.539 106.365 752.243 106.357 751.958 106.341 751.662 106.324 751.375 106.308 751.081 106.292 750.794 106.275 750.498 106.251 749.254 106.152 748.631 106.095 748.008 106.029 747.385 105.956 747.072 105.915 746.753 105.882 746.13 105.8 745.82 105.751 745.508 105.71 743.641 105.415 743.018 105.3 741.772 105.062 741.14 104.94 740.83 104.874 740.517 104.8 738.027 104.219 736.781 103.883 736.15 103.711 735.529 103.53 734.283 103.153 733.66 102.957 733.347 102.85 733.037 102.752 731.791 102.317 731.168 102.088 730.849 101.973 730.539 101.851 728.244 100.916 727.088 100.408 726.515 100.138 726.228 100.007 725.941 99.8677 723.64 98.6959 722.492 98.0568 721.917 97.7207 721.632 97.5569 721.345 97.3849 719.042 95.9346 717.894 95.1561 717.313 94.7465 716.74 94.3368 714.437 92.5832 713.29 91.6409 712.717 91.1656 712.43 90.9199 712.142 90.6659 707.448 86.2657 705.105 83.8074 703.932 82.5128 703.343 81.8491 703.047 81.5133 702.76 81.169 700.408 78.3504 699.238 76.8754 698.646 76.1217 698.361 75.7365 698.065 75.3514 695.722 72.172 694.541 70.517 693.96 69.6729 693.666 69.2468 693.37 68.8126 688.347 61.0939 685.832 57.0297 684.577 54.973 683.948 53.9405 683.325 52.9083 678.301 44.7799 675.786 40.9861 674.532 39.1998 673.902 38.3393 673.59 37.9215 673.271 37.5118 672.115 36.0533 671.534 35.3569 671.247 35.0208 670.951 34.6932 669.797 33.4476 669.214 32.8741 668.641 32.3333 667.477 31.3499 666.896 30.9157 666.609 30.7026 666.321 30.5061 665.74 30.1455 665.453 29.9735 665.159 29.8176 664.872 29.6702 664.585 29.5309 664.291 29.3998 664.003 29.2768 663.716 29.1703 663.422 29.0721 663.135 28.9819 662.839 28.8999 662.552 28.8344 662.267 28.7772 661.971 28.7279 661.683 28.687 661.398 28.6624 661.102 28.6459 660.815 28.6377 660.53 28.6377 660.234 28.6543 659.947 28.6788 659.661 28.7115 659.366 28.7524 659.078 28.8099 658.791 28.8754 658.497 28.9492 658.21 29.031 657.916 29.1294 657.629 29.2359 657.341 29.3507 657.046 29.4736 656.473 29.7603 656.177 29.916 655.892 30.0798 655.309 30.4322 654.736 30.8255 654.113 31.2927 653.803 31.5385 653.49 31.8007 652.867 32.3415 652.557 32.6283 652.244 32.9232 651.629 33.546 651.009 34.2015 650.386 34.8897 650.073 35.2503 649.763 35.6191 648.525 37.1512 647.902 37.9626 647.279 38.7983 646.033 40.5435 645.42 41.4449 645.108 41.9038 644.797 42.3708 642.314 46.2137 641.068 48.2049 640.445 49.2127 640.143 49.7125 639.83 50.2206 637.34 54.3011 636.103 56.3415 634.857 58.3735 630.286 65.6087 627.991 69.0421 626.844 70.689 626.277 71.5083 625.992 71.9098 625.705 72.3033 621.123 78.3341 618.839 81.087 617.692 82.398 617.117 83.0372 616.544 83.66 611.873 88.4124 609.538 90.5264 608.374 91.5262 607.793 92.0015 607.203 92.4766 604.867 94.263 603.705 95.0987 603.121 95.5002 602.532 95.8935 600.197 97.3685 599.033 98.0486 598.452 98.3762 598.156 98.5403 597.863 98.6959 595.362 99.9658 594.11 100.548 593.487 100.826 593.174 100.957 592.864 101.097 591.61 101.605 590.987 101.851 590.676 101.965 590.357 102.088 589.111 102.531 588.488 102.744 588.169 102.85 587.857 102.957 585.359 103.711 584.104 104.055 583.171 104.301 582.858 104.374 581.606 104.669 580.983 104.808 580.662 104.874 580.351 104.94 579.105 105.185 578.474 105.308 578.164 105.358 577.853 105.415 576.697 105.603 576.123 105.693 575.837 105.734 575.542 105.775 574.394 105.923 573.813 105.997 573.526 106.021 573.238 106.054 572.666 106.111 572.37 106.144 571.51 106.218 571.223 106.234 570.929 106.259 570.354 106.3 569.781 106.333 569.486 106.341 568.913 106.374 568.053 106.398 567.757 106.406 567.47 106.415 566.897 106.415 566.61 106.423 566.029 106.423 565.741 106.415 565.454 106.415 565.169 106.406 564.873 106.406 564.3 106.39 564.013 106.374 563.438 106.357 563.144 106.341 561.997 106.275 561.701 106.251 561.129 106.21 560.554 106.161 559.973 106.103 559.685 106.079 559.4 106.046 558.163 105.907 557.54 105.825 557.235 105.784 556.925 105.734 556.31 105.644 556 105.603 555.687 105.554 555.073 105.448 554.762 105.399 554.45 105.341 553.212 105.112 552.6 104.989 551.977 104.858 550.739 104.579 550.124 104.432 549.812 104.358 549.51 104.284 547.035 103.62 545.797 103.252 545.174 103.055 544.872 102.957 544.559 102.85 543.324 102.432 542.709 102.211 542.086 101.982 540.849 101.498 540.234 101.244 539.924 101.121 539.611 100.99 537.096 99.8431 535.833 99.2121 535.204 98.8843 534.891 98.7123 534.572 98.5403 533.318 97.8355 532.687 97.4667 532.368 97.2783 532.057 97.0816 530.795 96.2868 530.163 95.8771 529.853 95.6642 529.532 95.4511 527.017 93.6402 525.756 92.6652 525.125 92.1571 524.812 91.9031 524.502 91.6409 521.978 89.4531 520.715 88.2813 520.092 87.6833 519.774 87.3718 519.463 87.0687 514.808 82.1358 512.488 79.4156 511.326 77.9817 510.743 77.2523 510.458 76.8835 510.162 76.5068 507.836 73.4258 506.68 71.8198 506.099 71.0005 505.803 70.5824 505.516 70.1646 503.19 66.7395 502.025 64.9697 501.444 64.0684 501.157 63.6176 500.861 63.1589 495.879 55.1205 493.389 51.0317 492.143 48.9916 491.529 47.9836 490.906 46.9839 488.416 43.0919 487.17 41.2317 486.547 40.3306 486.236 39.888 485.924 39.4538 483.434 36.1762 482.188 34.7095 481.565 34.0295 481.254 33.7016 480.942 33.3821 479.794 32.284 479.213 31.7842 478.926 31.5467 478.641 31.3172 478.066 30.883 477.781 30.6781 477.493 30.4897 476.919 30.1291 476.633 29.9569 476.346 29.8013 475.771 29.5227 475.486 29.3916 474.911 29.1621 474.339 28.9819 474.051 28.8999 473.764 28.8344 473.478 28.7772 473.191 28.7279 472.904 28.687 472.618 28.6624 472.331 28.6459 472.044 28.6377 471.756 28.6377 471.184 28.6706 470.896 28.7033 470.324 28.8017 470.036 28.8672 469.749 28.941 469.464 29.0228 469.176 29.113 468.889 29.2196 468.604 29.3343 468.316 29.4572 468.029 29.5883 467.733 29.7276 467.16 30.0389 466.588 30.3913 466.3 30.5797 466.013 30.7764 465.44 31.2025 465.153 31.4238 464.866 31.6614 464.293 32.1529 464.006 32.4069 463.718 32.6773 463.146 33.2347 462.573 33.8245 461.4 35.1192 460.819 35.8074 460.523 36.1598 460.228 36.5204 459.057 38.0362 458.474 38.8228 458.18 39.2243 457.885 39.634 455.55 43.0672 454.377 44.8699 453.788 45.7876 453.501 46.2548 453.207 46.7217 448.519 54.3586 446.176 58.1933 445.005 60.086 444.422 61.0285 444.128 61.4954 443.841 61.9626 438.817 69.5993 436.31 73.139 435.056 74.8352 434.433 75.6627 434.114 76.0724 433.804 76.4739 431.295 79.604 430.043 81.087 429.411 81.8164 428.788 82.521 426.281 85.2414 425.027 86.5279 424.396 87.1507 423.773 87.7569 419.143 91.8867 416.834 93.7058 415.669 94.5579 415.097 94.9757 414.809 95.1725 414.514 95.3774 412.204 96.885 411.048 97.5896 410.467 97.9257 409.893 98.2533 407.575 99.4825 406.419 100.04 405.846 100.31 405.55 100.449 405.263 100.58 402.782 101.621 401.544 102.096 400.921 102.317 400.608 102.432 400.306 102.539 399.06 102.957 398.446 103.153 397.823 103.35 396.585 103.711 395.964 103.883 395.341 104.047 392.866 104.661 391.62 104.931 391.005 105.054 390.695 105.12 390.382 105.177 389.147 105.399 388.524 105.505 387.901 105.603 386.663 105.784 386.04 105.874 385.738 105.907 385.426 105.947 384.794 106.021 384.475 106.054 384.165 106.087 383.534 106.144 383.215 106.177 382.902 106.201 382.262 106.251 381.952 106.275 381.633 106.292 381.321 106.308 381.002 106.333 380.689 106.349 380.37 106.357 380.06 106.374 379.739 106.382 379.428 106.39 379.108 106.398 378.797 106.406 378.478 106.415 378.166 106.415 377.847 106.423 377.215 106.423 376.897 106.415 376.584 106.415 376.265 106.406 375.955 106.398 375.634 106.39 375.323 106.382 375.002 106.365 374.692 106.357 374.373 106.341 374.061 106.324 373.742 106.308 373.429 106.284 373.11 106.267 372.792 106.242 372.16 106.193 371.85 106.169 371.529 106.136 370.897 106.079 370.587 106.046 370.268 106.013 369.005 105.857 368.374 105.775 368.063 105.726 367.742 105.677 367.113 105.587 366.792 105.538 366.482 105.481 365.85 105.374 365.532 105.317 365.219 105.259 364.049 105.038 363.465 104.915 363.18 104.858 362.884 104.792 361.72 104.53 361.139 104.391 360.843 104.317 360.558 104.243 359.394 103.94 358.804 103.776 358.517 103.694 358.221 103.612 357.059 103.26 356.476 103.08 356.182 102.99 355.895 102.891 353.56 102.08 352.396 101.629 351.815 101.4 351.519 101.277 351.232 101.154 350.07 100.654 349.478 100.392 349.193 100.261 348.897 100.122 347.733 99.5562 347.152 99.2612 346.856 99.1138 346.571 98.9581 344.071 97.5651 342.827 96.8112 342.195 96.4097 341.883 96.2131 341.572 96.0082 339.074 94.2711 337.828 93.3371 336.582 92.3537 334.084 90.2478 332.838 89.1254 332.206 88.5435 331.583 87.9537 329.085 85.4627 327.839 84.1435 327.216 83.4634 326.593 82.775 321.989 77.2852 319.677 74.2781 318.532 72.713 317.67 71.5083 317.376 71.0987 312.769 64.2486 310.468 60.6186 309.321 58.7586 308.461 57.3576 308.165 56.8823 303.234 48.7866 300.758 44.8454 299.529 42.9445 298.906 42.0184 298.604 41.5596 298.292 41.109 295.825 37.6756 294.589 36.1106 293.975 35.3732 293.662 35.0126 293.352 34.6684 292.122 33.3492 291.499 32.743 291.195 32.4562 290.885 32.1775 290.27 31.6449 289.958 31.3992 289.656 31.1534 289.033 30.7026 288.73 30.4979 288.418 30.3011 287.787 29.9242 287.476 29.7603 287.157 29.6047 286.845 29.4572 286.534 29.318 286.213 29.2032 285.903 29.0885 285.59 28.9901 285.271 28.8999 284.961 28.8263 284.64 28.7688 284.33 28.7197 284.017 28.6788 283.698 28.6543 283.388 28.6377 283.075 28.6377 282.756 28.6459 282.444 28.6706 282.133 28.7033 281.815 28.7524 281.502 28.8099 281.183 28.8835 280.871 28.9656 280.56 29.0557 280.241 29.1621 279.929 29.285 279.618 29.4161 279.297 29.5554 278.987 29.7113 278.668 29.8751 278.355 30.0553 277.724 30.4404 277.414 30.6453 277.103 30.8664 276.472 31.3418 276.159 31.5958 275.84 31.858 275.209 32.4151 274.899 32.7103 274.586 33.0134 273.957 33.6444 273.644 33.972 273.325 34.3162 272.071 35.7584 271.44 36.5286 271.129 36.9219 270.81 37.3234 269.556 39.0032 268.924 39.8798 268.614 40.3306 268.293 40.7812 265.975 44.2637 264.819 46.0828 264.238 47.0087 263.943 47.4756 263.655 47.9427 261.337 51.72 260.173 53.6293 259.6 54.5879 259.305 55.0632 259.017 55.5385 254.373 63.0196 252.053 66.6003 250.897 68.3373 250.316 69.1814 250.029 69.6074 249.735 70.0253 244.762 76.8017 242.278 79.8825 241.032 81.3492 240.409 82.0622 240.099 82.4146 239.786 82.7586 237.305 85.4382 236.059 86.6999 235.436 87.3145 234.813 87.9209 232.331 90.2069 231.085 91.2803 230.462 91.7965 229.839 92.3046 227.553 94.0746 226.407 94.9021 225.833 95.3036 225.26 95.6969 222.965 97.1636 221.818 97.8436 221.253 98.1715 220.966 98.3271 220.679 98.491 218.384 99.6791 217.236 100.228 216.376 100.622 216.091 100.744 213.805 101.695 212.657 102.129 212.082 102.342 211.51 102.539 209.175 103.301 208.003 103.653 207.421 103.817 207.126 103.899 206.831 103.973 205.668 104.276 205.078 104.423 204.791 104.489 204.496 104.563 203.324 104.825 202.742 104.948 202.447 105.005 202.161 105.062 200.989 105.292 200.407 105.39 200.112 105.448 199.817 105.497 198.654 105.677 198.064 105.759 197.777 105.8 197.482 105.841 196.31 105.988 195.728 106.046 195.433 106.079 195.146 106.111 194.557 106.161 194.27 106.185 193.975 106.21 193.393 106.259 192.803 106.292 192.492 106.316 191.869 106.349 191.558 106.357 191.238 106.374 190.927 106.382 190.615 106.398 190.304 106.398 189.993 106.406 189.673 106.415 189.362 106.415 189.05 106.423 188.428 106.423 188.108 106.415 187.797 106.415 186.862 106.39 186.543 106.382 186.232 106.365 185.92 106.357 185.297 106.324 184.978 106.308 184.667 106.292 184.044 106.242 183.732 106.226 183.413 106.193 182.79 106.144 182.168 106.079 181.848 106.046 180.914 105.947 180.602 105.907 180.283 105.866 179.66 105.784 179.349 105.734 179.037 105.693 178.406 105.595 177.784 105.497 176.53 105.276 175.907 105.161 175.588 105.104 175.276 105.038 174.023 104.776 173.4 104.636 172.777 104.489 170.466 103.899 169.311 103.571 168.729 103.407 168.156 103.227 167 102.858 166.427 102.662 166.132 102.563 165.845 102.465 164.69 102.047 164.116 101.826 163.821 101.719 163.534 101.605 161.224 100.63 160.068 100.105 158.921 99.548 156.611 98.3271 155.455 97.6716 154.873 97.3274 154.587 97.1472 154.3 96.9752 151.825 95.3609 150.588 94.4843 149.965 94.0335 149.654 93.8042 149.351 93.5665 146.868 91.6 145.631 90.543 145.016 90.002 144.393 89.4449 141.919 87.1014 140.682 85.856 140.067 85.2169 139.756 84.8974 139.444 84.5695 136.97 81.8327 135.732 80.3988 135.11 79.6533 134.806 79.2845 134.495 78.9076 129.448 72.3033 126.932 68.6979 125.67 66.8216 125.039 65.8627 124.72 65.3876 124.408 64.8959 119.361 56.8577 116.845 52.7115 115.584 50.6384 114.953 49.6141 114.633 49.0979 114.322 48.5901 109.667 41.3465 107.341 38.0771 106.177 36.5777 105.595 35.8649 105.3 35.5125 105.013 35.1765 103.85 33.8818 103.268 33.2838 102.973 32.997 102.686 32.7184 101.523 31.6778 100.941 31.2188 100.646 30.9975 100.359 30.7846 99.7775 30.3913 99.4825 30.2109 99.1958 30.0389 98.6139 29.7194 98.319 29.5802 98.0322 29.4409 97.7373 29.318 97.4503 29.2114 97.1554 29.1048 96.8687 29.0146 96.5737 28.9246 96.2868 28.859 95.9918 28.7935 95.7051 28.7442 95.3938 28.6952 95.0823 28.6624 94.771 28.6459 94.4595 28.6377 94.1482 28.6377 93.8369 28.6543 93.5254 28.6788 93.2141 28.7197 92.9028 28.7688 92.5913 28.8344 92.2801 28.9081 91.9688 28.9983 91.6491 29.0967 91.3378 29.2032 91.0263 29.3261 90.715 29.4654 90.0922 29.7603 89.7809 29.9324 89.4694 30.1128 89.1581 30.3011 88.8468 30.4979 88.5353 30.7108 88.224 30.9321 87.6012 31.4074 87.29 31.6614 86.9785 31.9237 86.3559 32.4808 86.0444 32.7757 85.7331 33.0788 84.4875 34.3735 83.8649 35.0783 83.5534 35.4387 83.2421 35.8074 81.9884 37.3643 81.3658 38.1837 80.743 39.0359 79.4974 40.7975 78.8748 41.7071 78.5633 42.166 78.252 42.6412 77.0065 44.5504 76.3839 45.5254 75.7611 46.5088 71.1643 54.0062 68.8617 57.7755 67.7145 59.6354 67.141 60.5613 66.5675 61.4791 61.9707 68.5423 59.6682 71.8444 58.521 73.434 57.9475 74.2124 57.374 74.9827 52.6788 80.8414 50.3353 83.4962 49.1636 84.7579 48.5819 85.3725 48.2868 85.6758 47.9918 85.9708 45.6483 88.2813 44.4766 89.3712 43.8867 89.8957 43.6 90.1579 43.3048 90.4119 40.9614 92.3784 39.7898 93.3043 38.9048 93.968 38.6181 94.1891 36.1024 95.9427 34.8488 96.7457 34.2178 97.139 33.5951 97.516 31.0796 98.9254 29.826 99.5643 29.2032 99.8758 28.8835 100.023 28.5722 100.171 26.0649 101.277 24.803 101.777 24.1802 102.014 23.8607 102.137 23.5494 102.252 22.2957 102.686 21.6647 102.899 21.3534 102.998 21.0419 103.104 19.7801 103.489 18.846 103.76 18.5265 103.842 16.2158 104.44 15.0522 104.71 14.4787 104.841 14.1837 104.899 13.8969 104.956 12.7416 105.185 12.1598 105.3 11.873 105.349 11.578 105.399 10.4227 105.595 9.84092 105.677 9.26734 105.759 8.10379 105.915 7.53021 105.988 7.23524 106.013 6.94845 106.046 6.36669 106.111 5.79311 106.161 5.21135 106.21 4.92456 106.234 4.62957 106.251 4.05599 106.292 3.76102 106.308 3.18744 106.341 2.89246 106.357 2.60567 106.365 2.31888 106.382 2.0239 106.39 1.45032 106.406 1.15534 106.406 0.868558 106.415 0.581769 106.415 0.286788 106.423Z" stroke="#0000FF" stroke-width="2.09765" stroke-linecap="square" stroke-miterlimit="3.23931" stroke-opacity="0.3" fill="none" transform="matrix(1 0 0 1.00048 1512.42 700)"/></g><path d="M0 106.423 0.286788 106.423 0.581769 106.415 0.868558 106.415 1.15534 106.406 1.45032 106.406 2.0239 106.39 2.31888 106.382 2.60567 106.365 2.89246 106.357 3.18744 106.341 3.76102 106.308 4.05599 106.292 4.62957 106.251 4.92456 106.234 5.21135 106.21 5.79311 106.161 6.36669 106.111 6.94845 106.046 7.23524 106.013 7.53021 105.988 8.10379 105.915 9.26734 105.759 9.84092 105.677 10.4227 105.595 11.578 105.399 11.873 105.349 12.1598 105.3 12.7416 105.185 13.8969 104.956 14.1837 104.899 14.4787 104.841 15.0522 104.71 16.2158 104.44 18.5265 103.842 18.846 103.76 19.7801 103.489 21.0419 103.104 21.3534 102.998 21.6647 102.899 22.2957 102.686 23.5494 102.252 23.8607 102.137 24.1802 102.014 24.803 101.777 26.0649 101.277 28.5722 100.171 28.8835 100.023 29.2032 99.8758 29.826 99.5643 31.0796 98.9254 33.5951 97.516 34.2178 97.139 34.8488 96.7457 36.1024 95.9427 38.6181 94.1891 38.9048 93.968 39.7898 93.3043 40.9614 92.3784 43.3048 90.4119 43.6 90.1579 43.8867 89.8957 44.4766 89.3712 45.6483 88.2813 47.9918 85.9708 48.2868 85.6758 48.5819 85.3725 49.1636 84.7579 50.3353 83.4962 52.6788 80.8414 57.374 74.9827 57.9475 74.2124 58.521 73.434 59.6682 71.8444 61.9707 68.5423 66.5675 61.4791 67.141 60.5613 67.7145 59.6354 68.8617 57.7755 71.1643 54.0062 75.7611 46.5088 76.3839 45.5254 77.0065 44.5504 78.252 42.6412 78.5633 42.166 78.8748 41.7071 79.4974 40.7975 80.743 39.0359 81.3658 38.1837 81.9884 37.3643 83.2421 35.8074 83.5534 35.4387 83.8649 35.0783 84.4875 34.3735 85.7331 33.0788 86.0444 32.7757 86.3559 32.4808 86.9785 31.9237 87.29 31.6614 87.6012 31.4074 88.224 30.9321 88.5353 30.7108 88.8468 30.4979 89.1581 30.3011 89.4694 30.1128 89.7809 29.9324 90.0922 29.7603 90.715 29.4654 91.0263 29.3261 91.3378 29.2032 91.6491 29.0967 91.9688 28.9983 92.2801 28.9081 92.5913 28.8344 92.9028 28.7688 93.2141 28.7197 93.5254 28.6788 93.8369 28.6543 94.1482 28.6377 94.4595 28.6377 94.771 28.6459 95.0823 28.6624 95.3938 28.6952 95.7051 28.7442 95.9918 28.7935 96.2868 28.859 96.5737 28.9246 96.8687 29.0146 97.1554 29.1048 97.4503 29.2114 97.7373 29.318 98.0322 29.4409 98.319 29.5802 98.6139 29.7194 99.1958 30.0389 99.4825 30.2109 99.7775 30.3913 100.359 30.7846 100.646 30.9975 100.941 31.2188 101.523 31.6778 102.686 32.7184 102.973 32.997 103.268 33.2838 103.85 33.8818 105.013 35.1765 105.3 35.5125 105.595 35.8649 106.177 36.5777 107.341 38.0771 109.667 41.3465 114.322 48.5901 114.633 49.0979 114.953 49.6141 115.584 50.6384 116.845 52.7115 119.361 56.8577 124.408 64.8959 124.72 65.3876 125.039 65.8627 125.67 66.8216 126.932 68.6979 129.448 72.3033 134.495 78.9076 134.806 79.2845 135.11 79.6533 135.732 80.3988 136.97 81.8327 139.444 84.5695 139.756 84.8974 140.067 85.2169 140.682 85.856 141.919 87.1014 144.393 89.4449 145.016 90.002 145.631 90.543 146.868 91.6 149.351 93.5665 149.654 93.8042 149.965 94.0335 150.588 94.4843 151.825 95.3609 154.3 96.9752 154.587 97.1472 154.873 97.3274 155.455 97.6716 156.611 98.3271 158.921 99.548 160.068 100.105 161.224 100.63 163.534 101.605 163.821 101.719 164.116 101.826 164.69 102.047 165.845 102.465 166.132 102.563 166.427 102.662 167 102.858 168.156 103.227 168.729 103.407 169.311 103.571 170.466 103.899 172.777 104.489 173.4 104.636 174.023 104.776 175.276 105.038 175.588 105.104 175.907 105.161 176.53 105.276 177.784 105.497 178.406 105.595 179.037 105.693 179.349 105.734 179.66 105.784 180.283 105.866 180.602 105.907 180.914 105.947 181.848 106.046 182.168 106.079 182.79 106.144 183.413 106.193 183.732 106.226 184.044 106.242 184.667 106.292 184.978 106.308 185.297 106.324 185.92 106.357 186.232 106.365 186.543 106.382 186.862 106.39 187.797 106.415 188.108 106.415 188.428 106.423 189.05 106.423 189.362 106.415 189.673 106.415 189.993 106.406 190.304 106.398 190.615 106.398 190.927 106.382 191.238 106.374 191.558 106.357 191.869 106.349 192.492 106.316 192.803 106.292 193.393 106.259 193.975 106.21 194.27 106.185 194.557 106.161 195.146 106.111 195.433 106.079 195.728 106.046 196.31 105.988 197.482 105.841 197.777 105.8 198.064 105.759 198.654 105.677 199.817 105.497 200.112 105.448 200.407 105.39 200.989 105.292 202.161 105.062 202.447 105.005 202.742 104.948 203.324 104.825 204.496 104.563 204.791 104.489 205.078 104.423 205.668 104.276 206.831 103.973 207.126 103.899 207.421 103.817 208.003 103.653 209.175 103.301 211.51 102.539 212.082 102.342 212.657 102.129 213.805 101.695 216.091 100.744 216.376 100.622 217.236 100.228 218.384 99.6791 220.679 98.491 220.966 98.3271 221.253 98.1715 221.818 97.8436 222.965 97.1636 225.26 95.6969 225.833 95.3036 226.407 94.9021 227.553 94.0746 229.839 92.3046 230.462 91.7965 231.085 91.2803 232.331 90.2069 234.813 87.9209 235.436 87.3145 236.059 86.6999 237.305 85.4382 239.786 82.7586 240.099 82.4146 240.409 82.0622 241.032 81.3492 242.278 79.8825 244.762 76.8017 249.735 70.0253 250.029 69.6074 250.316 69.1814 250.897 68.3373 252.053 66.6003 254.373 63.0196 259.017 55.5385 259.305 55.0632 259.6 54.5879 260.173 53.6293 261.337 51.72 263.655 47.9427 263.943 47.4756 264.238 47.0087 264.819 46.0828 265.975 44.2637 268.293 40.7812 268.614 40.3306 268.924 39.8798 269.556 39.0032 270.81 37.3234 271.129 36.9219 271.44 36.5286 272.071 35.7584 273.325 34.3162 273.644 33.972 273.957 33.6444 274.586 33.0134 274.899 32.7103 275.209 32.4151 275.84 31.858 276.159 31.5958 276.472 31.3418 277.103 30.8664 277.414 30.6453 277.724 30.4404 278.355 30.0553 278.668 29.8751 278.987 29.7113 279.297 29.5554 279.618 29.4161 279.929 29.285 280.241 29.1621 280.56 29.0557 280.871 28.9656 281.183 28.8835 281.502 28.8099 281.815 28.7524 282.133 28.7033 282.444 28.6706 282.756 28.6459 283.075 28.6377 283.388 28.6377 283.698 28.6543 284.017 28.6788 284.33 28.7197 284.64 28.7688 284.961 28.8263 285.271 28.8999 285.59 28.9901 285.903 29.0885 286.213 29.2032 286.534 29.318 286.845 29.4572 287.157 29.6047 287.476 29.7603 287.787 29.9242 288.418 30.3011 288.73 30.4979 289.033 30.7026 289.656 31.1534 289.958 31.3992 290.27 31.6449 290.885 32.1775 291.195 32.4562 291.499 32.743 292.122 33.3492 293.352 34.6684 293.662 35.0126 293.975 35.3732 294.589 36.1106 295.825 37.6756 298.292 41.109 298.604 41.5596 298.906 42.0184 299.529 42.9445 300.758 44.8454 303.234 48.7866 308.165 56.8823 308.461 57.3576 309.321 58.7586 310.468 60.6186 312.769 64.2486 317.376 71.0987 317.67 71.5083 318.532 72.713 319.677 74.2781 321.989 77.2852 326.593 82.775 327.216 83.4634 327.839 84.1435 329.085 85.4627 331.583 87.9537 332.206 88.5435 332.838 89.1254 334.084 90.2478 336.582 92.3537 337.828 93.3371 339.074 94.2711 341.572 96.0082 341.883 96.2131 342.195 96.4097 342.827 96.8112 344.071 97.5651 346.571 98.9581 346.856 99.1138 347.152 99.2612 347.733 99.5562 348.897 100.122 349.193 100.261 349.478 100.392 350.07 100.654 351.232 101.154 351.519 101.277 351.815 101.4 352.396 101.629 353.56 102.08 355.895 102.891 356.182 102.99 356.476 103.08 357.059 103.26 358.221 103.612 358.517 103.694 358.804 103.776 359.394 103.94 360.558 104.243 360.843 104.317 361.139 104.391 361.72 104.53 362.884 104.792 363.18 104.858 363.465 104.915 364.049 105.038 365.219 105.259 365.532 105.317 365.85 105.374 366.482 105.481 366.792 105.538 367.113 105.587 367.742 105.677 368.063 105.726 368.374 105.775 369.005 105.857 370.268 106.013 370.587 106.046 370.897 106.079 371.529 106.136 371.85 106.169 372.16 106.193 372.792 106.242 373.11 106.267 373.429 106.284 373.742 106.308 374.061 106.324 374.373 106.341 374.692 106.357 375.002 106.365 375.323 106.382 375.634 106.39 375.955 106.398 376.265 106.406 376.584 106.415 376.897 106.415 377.215 106.423 377.847 106.423 378.166 106.415 378.478 106.415 378.797 106.406 379.108 106.398 379.428 106.39 379.739 106.382 380.06 106.374 380.37 106.357 380.689 106.349 381.002 106.333 381.321 106.308 381.633 106.292 381.952 106.275 382.262 106.251 382.902 106.201 383.215 106.177 383.534 106.144 384.165 106.087 384.475 106.054 384.794 106.021 385.426 105.947 385.738 105.907 386.04 105.874 386.663 105.784 387.901 105.603 388.524 105.505 389.147 105.399 390.382 105.177 390.695 105.12 391.005 105.054 391.62 104.931 392.866 104.661 395.341 104.047 395.964 103.883 396.585 103.711 397.823 103.35 398.446 103.153 399.06 102.957 400.306 102.539 400.608 102.432 400.921 102.317 401.544 102.096 402.782 101.621 405.263 100.58 405.55 100.449 405.846 100.31 406.419 100.04 407.575 99.4825 409.893 98.2533 410.467 97.9257 411.048 97.5896 412.204 96.885 414.514 95.3774 414.809 95.1725 415.097 94.9757 415.669 94.5579 416.834 93.7058 419.143 91.8867 423.773 87.7569 424.396 87.1507 425.027 86.5279 426.281 85.2414 428.788 82.521 429.411 81.8164 430.043 81.087 431.295 79.604 433.804 76.4739 434.114 76.0724 434.433 75.6627 435.056 74.8352 436.31 73.139 438.817 69.5993 443.841 61.9626 444.128 61.4954 444.422 61.0285 445.005 60.086 446.176 58.1933 448.519 54.3586 453.207 46.7217 453.501 46.2548 453.788 45.7876 454.377 44.8699 455.55 43.0672 457.885 39.634 458.18 39.2243 458.474 38.8228 459.057 38.0362 460.228 36.5204 460.523 36.1598 460.819 35.8074 461.4 35.1192 462.573 33.8245 463.146 33.2347 463.718 32.6773 464.006 32.4069 464.293 32.1529 464.866 31.6614 465.153 31.4238 465.44 31.2025 466.013 30.7764 466.3 30.5797 466.588 30.3913 467.16 30.0389 467.733 29.7276 468.029 29.5883 468.316 29.4572 468.604 29.3343 468.889 29.2196 469.176 29.113 469.464 29.0228 469.749 28.941 470.036 28.8672 470.324 28.8017 470.896 28.7033 471.184 28.6706 471.756 28.6377 472.044 28.6377 472.331 28.6459 472.618 28.6624 472.904 28.687 473.191 28.7279 473.478 28.7772 473.764 28.8344 474.051 28.8999 474.339 28.9819 474.911 29.1621 475.486 29.3916 475.771 29.5227 476.346 29.8013 476.633 29.9569 476.919 30.1291 477.493 30.4897 477.781 30.6781 478.066 30.883 478.641 31.3172 478.926 31.5467 479.213 31.7842 479.794 32.284 480.942 33.3821 481.254 33.7016 481.565 34.0295 482.188 34.7095 483.434 36.1762 485.924 39.4538 486.236 39.888 486.547 40.3306 487.17 41.2317 488.416 43.0919 490.906 46.9839 491.529 47.9836 492.143 48.9916 493.389 51.0317 495.879 55.1205 500.861 63.1589 501.157 63.6176 501.444 64.0684 502.025 64.9697 503.19 66.7395 505.516 70.1646 505.803 70.5824 506.099 71.0005 506.68 71.8198 507.836 73.4258 510.162 76.5068 510.458 76.8835 510.743 77.2523 511.326 77.9817 512.488 79.4156 514.808 82.1358 519.463 87.0687 519.774 87.3718 520.092 87.6833 520.715 88.2813 521.978 89.4531 524.502 91.6409 524.812 91.9031 525.125 92.1571 525.756 92.6652 527.017 93.6402 529.532 95.4511 529.853 95.6642 530.163 95.8771 530.795 96.2868 532.057 97.0816 532.368 97.2783 532.687 97.4667 533.318 97.8355 534.572 98.5403 534.891 98.7123 535.204 98.8843 535.833 99.2121 537.096 99.8431 539.611 100.99 539.924 101.121 540.234 101.244 540.849 101.498 542.086 101.982 542.709 102.211 543.324 102.432 544.559 102.85 544.872 102.957 545.174 103.055 545.797 103.252 547.035 103.62 549.51 104.284 549.812 104.358 550.124 104.432 550.739 104.579 551.977 104.858 552.6 104.989 553.212 105.112 554.45 105.341 554.762 105.399 555.073 105.448 555.687 105.554 556 105.603 556.31 105.644 556.925 105.734 557.235 105.784 557.54 105.825 558.163 105.907 559.4 106.046 559.685 106.079 559.973 106.103 560.554 106.161 561.129 106.21 561.701 106.251 561.997 106.275 563.144 106.341 563.438 106.357 564.013 106.374 564.3 106.39 564.873 106.406 565.169 106.406 565.454 106.415 565.741 106.415 566.029 106.423 566.61 106.423 566.897 106.415 567.47 106.415 567.757 106.406 568.053 106.398 568.913 106.374 569.486 106.341 569.781 106.333 570.354 106.3 570.929 106.259 571.223 106.234 571.51 106.218 572.37 106.144 572.666 106.111 573.238 106.054 573.526 106.021 573.813 105.997 574.394 105.923 575.542 105.775 575.837 105.734 576.123 105.693 576.697 105.603 577.853 105.415 578.164 105.358 578.474 105.308 579.105 105.185 580.351 104.94 580.662 104.874 580.983 104.808 581.606 104.669 582.858 104.374 583.171 104.301 584.104 104.055 585.359 103.711 587.857 102.957 588.169 102.85 588.488 102.744 589.111 102.531 590.357 102.088 590.676 101.965 590.987 101.851 591.61 101.605 592.864 101.097 593.174 100.957 593.487 100.826 594.11 100.548 595.362 99.9658 597.863 98.6959 598.156 98.5403 598.452 98.3762 599.033 98.0486 600.197 97.3685 602.532 95.8935 603.121 95.5002 603.705 95.0987 604.867 94.263 607.203 92.4766 607.793 92.0015 608.374 91.5262 609.538 90.5264 611.873 88.4124 616.544 83.66 617.117 83.0372 617.692 82.398 618.839 81.087 621.123 78.3341 625.705 72.3033 625.992 71.9098 626.277 71.5083 626.844 70.689 627.991 69.0421 630.286 65.6087 634.857 58.3735 636.103 56.3415 637.34 54.3011 639.83 50.2206 640.143 49.7125 640.445 49.2127 641.068 48.2049 642.314 46.2137 644.797 42.3708 645.108 41.9038 645.42 41.4449 646.033 40.5435 647.279 38.7983 647.902 37.9626 648.525 37.1512 649.763 35.6191 650.073 35.2503 650.386 34.8897 651.009 34.2015 651.629 33.546 652.244 32.9232 652.557 32.6283 652.867 32.3415 653.49 31.8007 653.803 31.5385 654.113 31.2927 654.736 30.8255 655.309 30.4322 655.892 30.0798 656.177 29.916 656.473 29.7603 657.046 29.4736 657.341 29.3507 657.629 29.2359 657.916 29.1294 658.21 29.031 658.497 28.9492 658.791 28.8754 659.078 28.8099 659.366 28.7524 659.661 28.7115 659.947 28.6788 660.234 28.6543 660.53 28.6377 660.815 28.6377 661.102 28.6459 661.398 28.6624 661.683 28.687 661.971 28.7279 662.267 28.7772 662.552 28.8344 662.839 28.8999 663.135 28.9819 663.422 29.0721 663.716 29.1703 664.003 29.2768 664.291 29.3998 664.585 29.5309 664.872 29.6702 665.159 29.8176 665.453 29.9735 665.74 30.1455 666.321 30.5061 666.609 30.7026 666.896 30.9157 667.477 31.3499 668.641 32.3333 669.214 32.8741 669.797 33.4476 670.951 34.6932 671.247 35.0208 671.534 35.3569 672.115 36.0533 673.271 37.5118 673.59 37.9215 673.902 38.3393 674.532 39.1998 675.786 40.9861 678.301 44.7799 683.325 52.9083 683.948 53.9405 684.577 54.973 685.832 57.0297 688.347 61.0939 693.37 68.8126 693.666 69.2468 693.96 69.6729 694.541 70.517 695.722 72.172 698.065 75.3514 698.361 75.7365 698.646 76.1217 699.238 76.8754 700.408 78.3504 702.76 81.169 703.047 81.5133 703.343 81.8491 703.932 82.5128 705.105 83.8074 707.448 86.2657 712.142 90.6659 712.43 90.9199 712.717 91.1656 713.29 91.6409 714.437 92.5832 716.74 94.3368 717.313 94.7465 717.894 95.1561 719.042 95.9346 721.345 97.3849 721.632 97.5569 721.917 97.7207 722.492 98.0568 723.64 98.6959 725.941 99.8677 726.228 100.007 726.515 100.138 727.088 100.408 728.244 100.916 730.539 101.851 730.849 101.973 731.168 102.088 731.791 102.317 733.037 102.752 733.347 102.85 733.66 102.957 734.283 103.153 735.529 103.53 736.15 103.711 736.781 103.883 738.027 104.219 740.517 104.8 740.83 104.874 741.14 104.94 741.772 105.062 743.018 105.3 743.641 105.415 745.508 105.71 745.82 105.751 746.13 105.8 746.753 105.882 747.072 105.915 747.385 105.956 748.008 106.029 748.631 106.095 749.254 106.152 750.498 106.251 750.794 106.275 751.081 106.292 751.375 106.308 751.662 106.324 751.958 106.341 752.243 106.357 752.539 106.365 752.826 106.382 753.12 106.39 753.407 106.398 753.703 106.406 753.988 106.406 754.284 106.415 754.58 106.415 754.865 106.423 943.941 106.423" stroke="#0000FF" stroke-width="3.35623" stroke-linecap="square" stroke-miterlimit="3.25" stroke-opacity="0.3" fill="none" transform="matrix(1 0 0 1.00048 1512.42 700)"/><path d="M0 77.7849 943.941 77.7849" stroke="#FF0000" stroke-width="3.35623" stroke-miterlimit="3.25" stroke-dasharray="2.09765 8.39058" fill="none" transform="matrix(1 0 0 1.00048 1512.42 700)"/><path d="M98.1715 28.6377C98.1715 27.63 97.77 26.6711 97.0652 25.9665 96.3524 25.2538 95.3938 24.8605 94.3941 24.8605 93.3943 24.8605 92.4357 25.2538 91.7229 25.9665 91.0181 26.6711 90.6166 27.63 90.6166 28.6377 90.6166 29.6374 91.0181 30.5961 91.7229 31.309 92.4357 32.0136 93.3943 32.4069 94.3941 32.4069 95.3938 32.4069 96.3524 32.0136 97.0652 31.309 97.77 30.5961 98.1715 29.6374 98.1715 28.6377Z" fill="#FF0000" fill-rule="evenodd" transform="matrix(1 0 0 1.00048 1512.42 700)"/><path d="M192.566 106.423C192.566 105.415 192.164 104.456 191.459 103.751 190.746 103.039 189.788 102.645 188.788 102.645 187.788 102.645 186.83 103.039 186.117 103.751 185.412 104.456 185.011 105.415 185.011 106.423 185.011 107.422 185.412 108.381 186.117 109.094 186.83 109.799 187.788 110.192 188.788 110.192 189.788 110.192 190.746 109.799 191.459 109.094 192.164 108.381 192.566 107.422 192.566 106.423Z" fill="#FF0000" fill-rule="evenodd" transform="matrix(1 0 0 1.00048 1512.42 700)"/></g></g></g><text font-family="ASVCodar LT Light,ASVCodar LT Light_MSFontService,sans-serif" font-weight="300" font-size="32" transform="translate(1758.78 1039)">positive shear</text><text font-family="ASVCodar LT Light,ASVCodar LT Light_MSFontService,sans-serif" font-weight="300" font-size="32" transform="translate(1730.61 1080)">(negative vorticity)</text><path d="M1863.84 1094.99 1868.56 1094.92 1873.14 1095.77 1877.38 1097.48 1881.2 1099.95 1884.47 1103.09 1887.1 1106.83 1888.99 1111.09 1890.01 1115.77 1890.08 1120.56 1889.23 1125.14 1887.52 1129.38 1885.05 1133.2 1881.91 1136.47 1878.12 1139.13 1876.34 1139.59 1876.01 1138.3 1877.67 1137.87 1877.45 1137.97 1881.09 1135.42 1880.99 1135.5 1884.05 1132.32 1883.97 1132.42 1886.37 1128.71 1886.31 1128.83 1887.96 1124.7 1887.93 1124.83 1888.76 1120.38 1888.75 1120.52 1888.68 1115.86 1888.7 1115.99 1887.7 1111.44 1887.74 1111.57 1885.91 1107.43 1885.97 1107.55 1883.42 1103.91 1883.5 1104.01 1880.32 1100.95 1880.42 1101.03 1876.71 1098.63 1876.83 1098.69 1872.7 1097.04 1872.83 1097.07 1868.38 1096.24 1868.52 1096.25 1863.86 1096.32ZM1878.3 1142.59 1864.43 1141.41 1876.66 1134.76Z" fill="#C00000"/><path d="M1872.08 1141.5 1867.4 1142.16 1862.75 1141.88 1858.33 1140.72 1854.24 1138.75 1850.6 1136.03 1847.52 1132.65 1845.12 1128.66 1843.51 1124.15 1842.84 1119.4 1843.12 1114.75 1844.28 1110.33 1846.25 1106.24 1848.97 1102.6 1852.37 1099.5 1857.55 1096.98 1858.14 1098.17 1853.04 1100.65 1853.2 1100.55 1849.91 1103.54 1850 1103.44 1847.36 1106.98 1847.43 1106.87 1845.51 1110.85 1845.56 1110.73 1844.43 1115.03 1844.45 1114.9 1844.18 1119.41 1844.17 1119.28 1844.82 1123.89 1844.79 1123.76 1846.35 1128.15 1846.29 1128.03 1848.63 1131.9 1848.55 1131.8 1851.54 1135.09 1851.44 1135 1854.98 1137.64 1854.87 1137.57 1858.85 1139.49 1858.73 1139.44 1863.03 1140.57 1862.9 1140.55 1867.41 1140.82 1867.28 1140.83 1871.89 1140.18ZM1855.91 1093.83 1869.7 1095.72 1857.15 1101.73Z" fill="#C00000"/><text font-family="ASVCodar LT Light,ASVCodar LT Light_MSFontService,sans-serif" font-weight="300" font-size="32" transform="translate(1805.73 699)">surface current</text><text font-family="NewComputerModern 10,NewComputerModern 10_MSFontService,sans-serif" font-style="italic" font-weight="400" font-size="27" transform="translate(1974.06 699)">U</text><text font-family="NewComputerModern 10,NewComputerModern 10_MSFontService,sans-serif" font-style="italic" font-weight="400" font-size="18" transform="translate(1993.89 705)">0</text><text font-family="ASVCodar LT Light,ASVCodar LT Light_MSFontService,sans-serif" font-weight="300" font-size="32" transform="translate(2053.55 698)">still water level</text><path d="M1512.5 777.167 1545.84 777.167 1545.84 779.833 1512.5 779.833ZM1544.51 774.5 1557.84 778.5 1544.51 782.5Z"/><path d="M1.33333-3.08642e-06 1.33341 33.3543-1.33326 33.3543-1.33333 3.08642e-06ZM4.00007 32.021 0.000104987 45.3543-3.99993 32.021Z" transform="matrix(1 0 0 -1 1513.5 778.854)"/><text font-family="NewComputerModern 10,NewComputerModern 10_MSFontService,sans-serif" font-style="italic" font-weight="400" font-size="27" transform="translate(1547.47 769)">x</text><text font-family="NewComputerModern 10,NewComputerModern 10_MSFontService,sans-serif" font-style="italic" font-weight="400" font-size="27" transform="translate(1512.41 730)">z</text><path d="M1914.83 706.5 1914.83 760.107 1912.17 760.107 1912.17 706.5ZM1917.5 758.774 1913.5 772.107 1909.5 758.774Z" fill="#4D4DFF"/><path d="M2192.44 1155.01 2192.01 792.001 2194.01 791.999 2194.44 1155.01ZM2197.44 1153.67 2193.45 1167.01 2189.44 1153.68ZM2189.02 793.338 2193 780 2197.02 793.329Z"/><text font-family="NewComputerModern 10,NewComputerModern 10_MSFontService,sans-serif" font-style="italic" font-weight="700" font-size="27" transform="translate(1779.34 955)">u</text><text font-family="NewComputerModern 10,NewComputerModern 10_MSFontService,sans-serif" font-style="italic" font-weight="700" font-size="18" transform="translate(1795.84 961)">c</text><text font-family="NewComputerModern 10,NewComputerModern 10_MSFontService,sans-serif" font-style="italic" font-weight="400" font-size="27" transform="translate(1805.34 955)">=</text><text font-family="Times New Roman,Times New Roman_MSFontService,sans-serif" font-weight="400" font-size="27" transform="translate(1825.84 955)">(</text><text font-family="NewComputerModern 10,NewComputerModern 10_MSFontService,sans-serif" font-style="italic" font-weight="400" font-size="27" transform="translate(1834.67 955)">U</text><text font-family="NewComputerModern 10,NewComputerModern 10_MSFontService,sans-serif" font-style="italic" font-weight="400" font-size="18" transform="translate(1854.5 961)">0</text><text font-family="NewComputerModern 10,NewComputerModern 10_MSFontService,sans-serif" font-style="italic" font-weight="400" font-size="27" transform="translate(1863.67 955)">+</text><text font-family="NewComputerModern 10,NewComputerModern 10_MSFontService,sans-serif" font-style="italic" font-weight="400" font-size="27" transform="translate(1884.17 955)">z</text><text font-family="NewComputerModern 10,NewComputerModern 10_MSFontService,sans-serif" font-style="italic" font-weight="400" font-size="27" transform="translate(1914.17 955)">,</text><text font-family="NewComputerModern 10,NewComputerModern 10_MSFontService,sans-serif" font-style="italic" font-weight="400" font-size="27" transform="translate(1922.34 955)"></text><text font-family="Times New Roman,Times New Roman_MSFontService,sans-serif" font-weight="400" font-size="27" transform="translate(1931.84 955)">0)</text><text font-family="NewComputerModern 10,NewComputerModern 10_MSFontService,sans-serif" font-style="italic" font-weight="400" font-size="27" transform="translate(2212.31 982)">h</text><path d="M1652.81 794.373 1652.15 741.011 1654.15 740.987 1654.81 794.348ZM1657.79 792.978 1653.95 806.359 1649.79 793.077ZM1649.16 742.382 1653 729 1657.16 742.283Z"/><path d="M1644.5 729.5 1661.76 729.5" stroke="#000000" stroke-width="1.33333" stroke-miterlimit="8" fill="none" fill-rule="evenodd"/><path d="M0 0 19.7273 0.121365" stroke="#000000" stroke-width="1.33333" stroke-miterlimit="8" fill="none" fill-rule="evenodd" transform="matrix(1 0 0 -1 1644.5 806.621)"/><text font-family="NewComputerModern 10,NewComputerModern 10_MSFontService,sans-serif" font-style="italic" font-weight="400" font-size="27" transform="translate(1667.29 769)">H</text><text font-family="ASVCodar LT Light,ASVCodar LT Light_MSFontService,sans-serif" font-weight="300" font-size="32" transform="translate(1547.47 698)">wave crest</text><text font-family="ASVCodar LT Light,ASVCodar LT Light_MSFontService,sans-serif" font-weight="300" font-size="32" transform="translate(1635.25 849)">wave trough</text><path d="M0 0 0.000104987 141.199" stroke="#000000" stroke-width="2" stroke-miterlimit="8" fill="none" fill-rule="evenodd" transform="matrix(1 0 0 -1 1884 919.199)"/><path d="M0 0 155.498 140.981" stroke="#000000" stroke-width="2" stroke-miterlimit="8" fill="none" fill-rule="evenodd" transform="matrix(1 0 0 -1 1786 918.981)"/><path d="M3.64087e-06-1 16.8357-0.999939 16.8357 1.00006-3.64087e-06 1ZM15.5024-2.66661 28.8357 0.000104987 15.5024 2.66672Z" transform="matrix(-1 0 0 1 1884.84 854)"/><path d="M1.63548e-06-1 52.1934-0.999915 52.1934 1.00009-1.63548e-06 1ZM50.8601-2.66658 64.1934 0.000104987 50.86 2.66675Z" transform="matrix(-1 0 0 1 1884.19 886)"/><path d="M0.00281377-0.999996 47.2538-0.867042 47.2482 1.13295-0.00281377 0.999996ZM45.9251-2.53745 59.2509 0.166719 45.9101 2.79586Z" transform="matrix(1 0 0 -1 1883 778.167)"/><path d="M1885.97 920.551 1795.99 920.065 1796.01 918.065 1885.98 918.551ZM1797.32 921.739 1784 919 1797.35 916.405Z"/><path d="M1884 802 1901.14 802 1901.14 804 1884 804ZM1899.81 800.333 1913.14 803 1899.81 805.667Z"/><path d="M2132.83 706.5 2132.83 760.107 2130.17 760.107 2130.17 706.5ZM2135.5 758.774 2131.5 772.107 2127.5 758.774Z" fill="#4D4DFF"/><text font-family="NewComputerModern 10,NewComputerModern 10_MSFontService,sans-serif" font-style="italic" font-weight="400" font-size="27" transform="translate(1917.65 1134)"></text><text font-family="NewComputerModern 10,NewComputerModern 10_MSFontService,sans-serif" font-style="italic" font-weight="400" font-size="27" transform="translate(1936.81 1134)">&gt;</text><text font-family="Times New Roman,Times New Roman_MSFontService,sans-serif" font-weight="400" font-size="27" transform="translate(1957.48 1134)">0</text></g></svg>